# xmcd CD database file
#
# Track frame offsets:
#	150
#	17705
#	39750
#	60949
#	77252
#	104742
#	123296
#	146466
#	164237
#	190873
#	209445
#	232184
#	255932
#	269733
#	295199
#
# Disc length: 4292 seconds
#
# Revision: 0
# Processed by: cddbd v1.5.1PL0 Copyright (c) Steve Scherf et al.
# Submitted via: CDex 1.51
#
DISCID=d310c20f
DTITLE=Judy And Mary - Judy And Mary Single Collection Vol.2
DYEAR=2004
DGENRE=JPop
TTITLE0=クラシック
TTITLE1=おめでとう
TTITLE2=くじら１２号
TTITLE3=ラプリーベイベー
TTITLE4=LOVE SOUL
TTITLE5=BATHROOM
TTITLE6=散歩道
TTITLE7=ミュージック　ファイター
TTITLE8=イロトリドリ ノ セカイ
TTITLE9=手紙をかくよ
TTITLE10=Brand New Wave Upper Ground
TTITLE11=ひとつだけ
TTITLE12=motto
TTITLE13=ラッキープール
TTITLE14=Peace
EXTD=YEAR: 2004
EXTT0=
EXTT1=
EXTT2=
EXTT3=
EXTT4=
EXTT5=
EXTT6=
EXTT7=
EXTT8=
EXTT9=
EXTT10=
EXTT11=
EXTT12=
EXTT13=
EXTT14=
PLAYORDER=
